<?xml version="1.0" encoding="UTF-8" standalone="no"?>
<!DOCTYPE svg PUBLIC "-//W3C//DTD SVG 1.1//EN" "http://www.w3.org/Graphics/SVG/1.1/DTD/svg11.dtd">
<svg width="100%" height="100%" viewBox="0 0 500 460" version="1.1" xmlns="http://www.w3.org/2000/svg" xmlns:xlink="http://www.w3.org/1999/xlink" xml:space="preserve" xmlns:serif="http://www.serif.com/" style="fill-rule:evenodd;clip-rule:evenodd;stroke-linejoin:round;stroke-miterlimit:2;">
    <g transform="matrix(24.9544,0,0,24.9142,-49.4544,-88.1114)">
        <path d="M2.832,3.537C2.362,3.537 1.982,3.917 1.982,4.387C1.982,4.856 2.362,5.237 2.832,5.237L2.832,3.537ZM10.66,5.354C10.191,5.354 9.81,5.734 9.81,6.204C9.81,6.673 10.191,7.054 10.66,7.054L10.66,5.354ZM18.953,15.812L19.753,16.099L18.953,15.812ZM2.832,5.237L3.343,5.237L3.343,3.537L2.832,3.537L2.832,5.237ZM4.402,6.018L7.465,15.976L9.09,15.476L6.026,5.518L4.402,6.018ZM10.148,17.957L17.111,17.957L17.111,16.257L10.148,16.257L10.148,17.957ZM19.753,16.099L21.793,10.418L20.192,9.844L18.153,15.524L19.753,16.099ZM18.23,5.354L10.66,5.354L10.66,7.054L18.23,7.054L18.23,5.354ZM21.793,10.418C22.678,7.952 20.85,5.354 18.23,5.354L18.23,7.054C19.673,7.054 20.68,8.485 20.192,9.844L21.793,10.418ZM17.111,17.957C18.296,17.957 19.353,17.214 19.753,16.099L18.153,15.524C17.996,15.964 17.579,16.257 17.111,16.257L17.111,17.957ZM7.465,15.976C7.828,17.154 8.916,17.957 10.148,17.957L10.148,16.257C9.662,16.257 9.233,15.941 9.09,15.476L7.465,15.976ZM3.343,5.237C3.829,5.237 4.259,5.554 4.402,6.018L6.026,5.518C5.664,4.34 4.576,3.537 3.343,3.537L3.343,5.237Z" style="fill:rgb(41,41,41);fill-rule:nonzero;"/>
    </g>
    <g transform="matrix(24.9544,0,0,24.9142,-49.4544,-88.1114)">
        <circle cx="17.02" cy="20.532" r="1.468" style="fill:rgb(41,41,41);"/>
    </g>
    <g transform="matrix(24.9544,0,0,24.9142,-49.4544,-88.1114)">
        <circle cx="10.171" cy="20.532" r="1.468" style="fill:rgb(41,41,41);"/>
    </g>
</svg>
