<?xml version="1.0" encoding="UTF-8" standalone="no"?>
<!DOCTYPE svg PUBLIC "-//W3C//DTD SVG 1.1//EN" "http://www.w3.org/Graphics/SVG/1.1/DTD/svg11.dtd">
<svg width="100%" height="100%" viewBox="0 0 19 19" version="1.1" xmlns="http://www.w3.org/2000/svg" xmlns:xlink="http://www.w3.org/1999/xlink" xml:space="preserve" xmlns:serif="http://www.serif.com/" style="fill-rule:evenodd;clip-rule:evenodd;stroke-linejoin:round;stroke-miterlimit:2;">
    <g transform="matrix(1.04636,0,0,1.04636,-3.26613e-05,4.38193e-05)">
        <path d="M2.954,17.844L8.059,12.743L5.42,10.103L0.315,15.208C-0.104,15.627 -0.104,16.316 0.315,16.735L1.423,17.844C1.846,18.263 2.539,18.263 2.954,17.844Z" style="fill:rgb(41,41,41);fill-rule:nonzero;"/>
    </g>
    <g transform="matrix(1.04636,0,0,1.04636,-3.26613e-05,4.38193e-05)">
        <path d="M6.558,10.218L7.94,11.601L9.516,10.025C11.662,11.516 14.636,11.308 16.548,9.395C18.695,7.249 18.695,3.76 16.548,1.61C14.402,-0.54 10.914,-0.536 8.763,1.61C6.851,3.523 6.643,6.496 8.133,8.643L6.558,10.218ZM9.846,2.678C11.403,1.121 13.927,1.121 15.481,2.678C17.038,4.235 17.038,6.759 15.481,8.313C13.924,9.87 11.399,9.87 9.846,8.313C8.289,6.759 8.289,4.235 9.846,2.678Z" style="fill:rgb(41,41,41);fill-rule:nonzero;"/>
    </g>
</svg>
