<?xml version="1.0" encoding="UTF-8" standalone="no"?>
<!DOCTYPE svg PUBLIC "-//W3C//DTD SVG 1.1//EN" "http://www.w3.org/Graphics/SVG/1.1/DTD/svg11.dtd">
<svg width="100%" height="100%" viewBox="0 0 460 446" version="1.1" xmlns="http://www.w3.org/2000/svg" xmlns:xlink="http://www.w3.org/1999/xlink" xml:space="preserve" xmlns:serif="http://www.serif.com/" style="fill-rule:evenodd;clip-rule:evenodd;stroke-linejoin:round;stroke-miterlimit:2;">
    <g transform="matrix(23,0,0,23,-46,-45.6757)">
        <path d="M3.702,10.766C3.702,6.857 6.871,3.688 10.78,3.688C14.689,3.688 17.858,6.857 17.858,10.766C17.858,14.675 14.689,17.844 10.78,17.844C6.871,17.844 3.702,14.675 3.702,10.766ZM10.78,1.986C5.931,1.986 2,5.917 2,10.766C2,15.615 5.931,19.546 10.78,19.546C13.054,19.546 15.125,18.682 16.685,17.264L20.547,21.127C20.879,21.459 21.418,21.459 21.751,21.127C22.083,20.794 22.083,20.255 21.751,19.923L17.829,16.002C18.917,14.54 19.56,12.728 19.56,10.766C19.56,5.917 15.629,1.986 10.78,1.986Z" style="fill:rgb(41,41,41);"/>
    </g>
</svg>
